HIERARCHY
ROOT Hips
{
	OFFSET 0.000000 0.000000 0.000000
	CHANNELS 6 Xposition Yposition Zposition Xrotation Yrotation Zrotation
	JOINT LeftUpLeg_virtual
	{
		OFFSET 0.000000 0.000000 0.000000
		CHANNELS 3 Xrotation Yrotation Zrotation
		JOINT LeftUpLeg
		{
			OFFSET 13.026900 -6.336304 -1.092800
			CHANNELS 3 Xrotation Yrotation Zrotation
			JOINT LeftLeg
			{
				OFFSET 0.524474 -46.096886 9.782700
				CHANNELS 3 Xrotation Yrotation Zrotation
				JOINT LeftFoot
				{
					OFFSET -0.524474 -53.427422 -12.948200
					CHANNELS 3 Xrotation Yrotation Zrotation
					JOINT LeftToeBase
					{
						OFFSET 0.192200 -14.009700 16.364100
						CHANNELS 3 Xrotation Yrotation Zrotation
						JOINT LeftToe_End
						{
							OFFSET -1.784700 -0.561700 9.474800
							CHANNELS 3 Xrotation Yrotation Zrotation
							End Site
							{
								OFFSET 0 0 0
							}
						}
					}
				}
			}
		}
	}
	JOINT RightUpLeg_virtual
	{
		OFFSET 0.000000 0.000000 0.000000
		CHANNELS 3 Xrotation Yrotation Zrotation
		JOINT RightUpLeg
		{
			OFFSET -12.883000 -6.336304 -1.092800
			CHANNELS 3 Xrotation Yrotation Zrotation
			JOINT RightLeg
			{
				OFFSET -0.524587 -46.096825 9.782800
				CHANNELS 3 Xrotation Yrotation Zrotation
				JOINT RightFoot
				{
					OFFSET 0.524587 -53.427383 -12.948300
					CHANNELS 3 Xrotation Yrotation Zrotation
					JOINT RightToeBase
					{
						OFFSET -0.192200 -14.009700 16.364100
						CHANNELS 3 Xrotation Yrotation Zrotation
						JOINT RightToe_End
						{
							OFFSET 1.784700 -0.561700 9.474800
							CHANNELS 3 Xrotation Yrotation Zrotation
							End Site
							{
								OFFSET 0 0 0
							}
						}
					}
				}
			}
		}
	}
	JOINT Spine_virtual
	{
		OFFSET 0.000000 0.000000 0.000000
		CHANNELS 3 Xrotation Yrotation Zrotation
		JOINT Spine
		{
			OFFSET 0.072000 7.257294 -0.789700
			CHANNELS 3 Xrotation Yrotation Zrotation
			JOINT Spine1
			{
				OFFSET 0.000000 12.508769 -0.658067
				CHANNELS 3 Xrotation Yrotation Zrotation
				JOINT Spine1_split
				{
					OFFSET 0.000000 12.508769 -0.658067
					CHANNELS 3 Xrotation Yrotation Zrotation
					JOINT Spine2
					{
						OFFSET 0.000000 12.508769 -0.658067
						CHANNELS 3 Xrotation Yrotation Zrotation
						JOINT Neck_virtual
						{
							OFFSET 0.000000 0.000000 0.000000
							CHANNELS 3 Xrotation Yrotation Zrotation
							JOINT Neck
							{
								OFFSET 0.000000 14.033295 7.520400
								CHANNELS 3 Xrotation Yrotation Zrotation
								JOINT Head
								{
									OFFSET 0.000000 8.198502 5.703100
									CHANNELS 3 Xrotation Yrotation Zrotation
									JOINT HeadTop_End
									{
										OFFSET 0.000000 17.760803 13.332701
										CHANNELS 3 Xrotation Yrotation Zrotation
										End Site
										{
											OFFSET 0 0 0
										}
									}
								}
							}
						}
						JOINT LeftShoulder_virtual
						{
							OFFSET 0.000000 0.000000 0.000000
							CHANNELS 3 Xrotation Yrotation Zrotation
							JOINT LeftShoulder
							{
								OFFSET 6.292450 5.785301 -0.669000
								CHANNELS 3 Xrotation Yrotation Zrotation
								JOINT LeftShoulder_split
								{
									OFFSET 6.292450 5.785301 -0.669000
									CHANNELS 3 Xrotation Yrotation Zrotation
									JOINT LeftArm
									{
										OFFSET 13.907140 -6.093903 1.965100
										CHANNELS 3 Xrotation Yrotation Zrotation
										JOINT LeftForeArm
										{
											OFFSET 34.140198 0.000000 0.000000
											CHANNELS 3 Xrotation Yrotation Zrotation
											JOINT LeftHand
											{
												OFFSET 40.960209 0.000000 0.000000
												CHANNELS 3 Xrotation Yrotation Zrotation
												End Site
												{
													OFFSET 0 0 0
												}
											}
										}
									}
								}
							}
						}
						JOINT RightShoulder_virtual
						{
							OFFSET 0.000000 0.000000 0.000000
							CHANNELS 3 Xrotation Yrotation Zrotation
							JOINT RightShoulder
							{
								OFFSET -6.292450 5.785301 -0.669000
								CHANNELS 3 Xrotation Yrotation Zrotation
								JOINT RightShoulder_split
								{
									OFFSET -6.292450 5.785301 -0.669000
									CHANNELS 3 Xrotation Yrotation Zrotation
									JOINT RightArm
									{
										OFFSET -13.907140 -6.093903 1.965100
										CHANNELS 3 Xrotation Yrotation Zrotation
										JOINT RightForeArm
										{
											OFFSET -34.140198 0.000000 0.000000
											CHANNELS 3 Xrotation Yrotation Zrotation
											JOINT RightHand
											{
												OFFSET -40.960209 0.000000 0.000000
												CHANNELS 3 Xrotation Yrotation Zrotation
												End Site
												{
													OFFSET 0 0 0
												}
											}
										}
									}
								}
							}
						}
					}
				}
			}
		}
	}
}
MOTION
Frames: 7
Frame Time: 0.03333333
1.427601 115.390717 -2.446836 0.000000 0.000000 0.000000 -3.462975 4.178499 -2.353334 -10.456654 8.320481 12.164955 18.706211 -4.904457 0.506481 -4.515252 1.882218 -6.218404 0.166708 0.350516 -0.760099 0.000000 0.000000 0.000000 -3.317623 5.312287 -2.558070 -13.524443 -4.630059 -3.518491 13.194059 2.439247 -0.662286 1.060166 1.084745 0.058077 0.467303 -0.183012 0.517548 0.000000 0.000000 0.000000 -3.931868 6.491744 -2.466289 9.671868 -0.803970 1.516347 1.867469 0.099005 -0.171040 0.176515 -1.162339 0.853314 0.000000 0.000000 0.000000 -4.115557 -0.111703 0.417434 0.082568 -0.595397 0.369838 4.897651 -1.681276 -1.806270 0.000000 0.000000 0.000000 -4.116822 -0.309720 0.420850 0.387203 -3.146037 -6.213831 -2.517726 -1.324832 0.347951 6.757422 -5.344635 -73.662190 5.982895 -8.436593 2.640725 0.000000 0.000000 0.000000 -4.645200 -0.506651 0.471067 0.978857 7.452353 5.852685 -4.566986 -1.375621 0.233283 5.113473 12.941100 73.842036 17.816731 18.694317 -2.929632 0.000000 0.000000 0.000000 
1.412211 115.486786 -2.275763 0.000000 0.000000 0.000000 -3.327080 4.022935 -2.415678 -10.398238 8.299480 12.298144 18.351946 -4.727251 0.416516 -4.801246 1.752446 -6.030379 0.399766 0.336233 -0.713554 0.000000 0.000000 0.000000 -3.255669 5.026690 -2.588670 -13.485360 -4.496496 -3.407306 13.376686 2.511347 -0.693439 0.997679 1.198560 -0.101067 0.751553 -0.205076 0.571471 0.000000 0.000000 0.000000 -3.614736 6.410292 -2.466415 9.781031 -0.737410 1.558018 1.884326 0.060708 -0.194591 0.451155 -1.531176 0.831139 0.000000 0.000000 0.000000 -4.114891 -0.120479 0.394982 0.093851 -0.516157 0.323741 5.083821 -1.822606 -1.682696 0.000000 0.000000 0.000000 -4.109876 -0.341714 0.400293 0.444434 -3.385120 -6.313529 -2.360483 -1.313752 0.528294 6.473600 -5.252494 -73.816860 5.958631 -8.609060 2.585084 0.000000 0.000000 0.000000 -4.638097 -0.515651 0.487549 1.027287 7.445497 5.999010 -4.498208 -1.364369 0.104106 5.295744 12.798753 73.792039 17.794958 18.863813 -2.944516 0.000000 0.000000 0.000000 
1.358525 115.503922 -2.091330 0.000000 0.000000 0.000000 -3.215995 3.728991 -2.491668 -10.344386 8.362389 12.509429 17.988374 -4.428326 0.450902 -5.171516 1.545743 -5.922926 0.603891 0.294826 -0.604291 0.000000 0.000000 0.000000 -3.157901 4.709006 -2.659243 -13.706789 -4.344944 -3.279202 13.725922 2.650169 -0.700308 0.979622 1.369808 -0.297764 0.938893 -0.206053 0.558017 0.000000 0.000000 0.000000 -3.334497 6.120176 -2.461125 10.103619 -0.663818 1.636115 1.812746 0.015113 -0.207889 0.577033 -1.757002 0.709328 0.000000 0.000000 0.000000 -4.139295 -0.147580 0.385377 0.152699 -0.365865 0.294781 5.169084 -1.905100 -1.626221 0.000000 0.000000 0.000000 -4.143061 -0.392675 0.399129 0.500775 -3.721168 -6.460325 -2.172432 -1.204508 0.759912 6.232515 -5.124541 -73.845867 6.041036 -8.705146 2.446613 0.000000 0.000000 0.000000 -4.681473 -0.550469 0.504178 1.062491 7.338847 6.311732 -4.457367 -1.274624 -0.098731 5.700979 13.046010 73.393306 17.681270 19.125167 -2.905045 0.000000 0.000000 0.000000 
1.267391 115.425438 -1.891836 0.000000 0.000000 0.000000 -3.123772 3.387067 -2.543673 -10.220537 8.463676 12.732261 17.733271 -4.090348 0.568620 -5.518905 1.255542 -5.987457 0.643329 0.231187 -0.432395 0.000000 0.000000 0.000000 -3.042396 4.355335 -2.717041 -14.190216 -4.253538 -3.180453 14.212203 2.844107 -0.669383 1.069712 1.576118 -0.480641 0.927249 -0.189491 0.483951 0.000000 0.000000 0.000000 -3.121293 5.612621 -2.421051 10.550255 -0.602534 1.695440 1.646281 -0.035583 -0.191579 0.509135 -1.799932 0.579285 0.000000 0.000000 0.000000 -4.171017 -0.187644 0.401470 0.265045 -0.164173 0.276511 5.126021 -1.941745 -1.621709 0.000000 0.000000 0.000000 -4.208148 -0.456009 0.430868 0.558748 -4.059174 -6.628911 -2.158660 -1.020396 0.891500 6.077593 -4.983277 -73.719912 6.218685 -8.698139 2.244432 0.000000 0.000000 0.000000 -4.776073 -0.605678 0.534559 1.090699 7.133956 6.732529 -4.457719 -1.179104 -0.375745 6.254613 13.644528 72.709898 17.476844 19.460995 -2.818717 0.000000 0.000000 0.000000 
1.130320 115.313095 -1.641516 0.000000 0.000000 0.000000 -3.025925 2.992386 -2.537589 -9.890674 8.574835 12.899083 17.574942 -3.694473 0.702115 -5.811961 0.924494 -6.139930 0.502554 0.162713 -0.245406 0.000000 0.000000 0.000000 -2.910992 3.917271 -2.721321 -14.921530 -4.276777 -3.165933 14.772733 3.087379 -0.603572 1.348738 1.799344 -0.585594 0.716507 -0.161154 0.374823 0.000000 0.000000 0.000000 -2.957344 4.894294 -2.329470 10.993924 -0.572397 1.694310 1.409442 -0.090610 -0.131556 0.400476 -1.701281 0.518777 0.000000 0.000000 0.000000 -4.194924 -0.238332 0.457934 0.412807 0.076910 0.281346 4.950403 -1.941961 -1.657832 0.000000 0.000000 0.000000 -4.291272 -0.524140 0.506555 0.614279 -4.333860 -6.824337 -2.326210 -0.811486 0.867822 5.994203 -4.831419 -73.426043 6.461809 -8.591707 1.998789 0.000000 0.000000 0.000000 -4.896216 -0.675243 0.599222 1.131725 6.828450 7.178171 -4.438243 -1.144070 -0.697036 6.883198 14.517714 71.826584 17.200233 19.816105 -2.700923 0.000000 0.000000 0.000000 
0.938028 115.215210 -1.375074 0.000000 0.000000 0.000000 -2.907531 2.501787 -2.455033 -9.356608 8.628079 12.981650 17.334149 -3.201538 0.793928 -6.061846 0.653742 -6.310636 0.396597 0.095987 -0.118800 0.000000 0.000000 0.000000 -2.747795 3.351909 -2.649872 -15.833073 -4.404964 -3.223506 15.356099 3.379590 -0.514846 1.755874 2.020523 -0.625287 0.470845 -0.122738 0.267398 0.000000 0.000000 0.000000 -2.803392 3.995606 -2.227545 11.302873 -0.570533 1.626497 1.138408 -0.154988 -0.019375 0.294973 -1.483101 0.508672 0.000000 0.000000 0.000000 -4.199693 -0.297502 0.560608 0.550181 0.351425 0.326007 4.627003 -1.926625 -1.708608 0.000000 0.000000 0.000000 -4.382802 -0.594746 0.630567 0.657331 -4.506026 -7.035830 -2.564570 -0.592748 0.719337 5.956095 -4.646318 -72.981637 6.738283 -8.358669 1.720702 0.000000 0.000000 0.000000 -5.007525 -0.750070 0.707313 1.202638 6.451286 7.575939 -4.421909 -1.166816 -0.986999 7.516505 15.532523 70.854094 16.886582 20.115102 -2.573101 0.000000 0.000000 0.000000 
0.716559 115.128853 -1.158918 0.000000 0.000000 0.000000 -2.760438 1.894404 -2.327786 -8.589732 8.555489 12.965229 16.778315 -2.504768 0.819491 -6.325011 0.532329 -6.508094 0.467146 0.035328 -0.094248 0.000000 0.000000 0.000000 -2.525459 2.623319 -2.525230 -16.826869 -4.545779 -3.287984 15.955196 3.699231 -0.438510 2.111532 2.211596 -0.723123 0.421734 -0.070993 0.200380 0.000000 0.000000 0.000000 -2.614584 2.950842 -2.149554 11.420538 -0.599084 1.498468 0.888137 -0.231020 0.127848 0.314901 -1.215988 0.556219 0.000000 0.000000 0.000000 -4.176650 -0.364040 0.699874 0.643823 0.654204 0.421566 4.224668 -1.875263 -1.758427 0.000000 0.000000 0.000000 -4.467851 -0.673616 0.786134 0.676731 -4.584840 -7.259891 -2.776972 -0.423374 0.534479 5.974238 -4.363797 -72.443309 7.006796 -8.013671 1.415365 0.000000 0.000000 0.000000 -5.098632 -0.829105 0.860287 1.307091 6.030303 7.931725 -4.360797 -1.197410 -1.202823 8.089204 16.581191 69.893688 16.571142 20.285571 -2.458371 0.000000 0.000000 0.000000 
